<!DOCTYPE svg PUBLIC "-//W3C//DTD SVG 1.1//EN" "http://www.w3.org/Graphics/SVG/1.1/DTD/svg11.dtd">
<!-- Uploaded to: SVG Repo, www.svgrepo.com, Transformed by: SVG Repo Mixer Tools -->
<svg height="800px" width="800px" version="1.1" id="Layer_1" xmlns="http://www.w3.org/2000/svg" xmlns:xlink="http://www.w3.org/1999/xlink" viewBox="0 0 512 512" xml:space="preserve" fill="#000000">
<g id="SVGRepo_bgCarrier" stroke-width="0"/>
<g id="SVGRepo_tracerCarrier" stroke-linecap="round" stroke-linejoin="round"/>
<g id="SVGRepo_iconCarrier"> <path style="fill:#f10a94;" d="M287.03,209.453L287.03,209.453L287.03,209.453L287.03,209.453v-0.005 c0-27.049-4.757-41.315-8.952-53.903c-3.666-11-6.564-19.687-6.563-39.179c0-12.854-10.418-23.276-23.271-23.276 c-0.002,0-0.002,0-0.002,0c-12.851,0-23.273,10.418-23.273,23.271c-0.002,27.048,4.754,41.317,8.952,53.904 c3.666,11,6.563,19.687,6.563,39.185c0,19.493-2.897,28.182-6.563,39.185c-4.197,12.587-8.954,26.858-8.952,53.906 c-0.002,27.049,4.754,41.318,8.952,53.906c3.666,11,6.563,19.687,6.563,39.185v0.002v0.002c0,19.495-2.897,28.185-6.563,39.185 c-4.197,12.587-8.954,26.858-8.952,53.909c0,12.851,10.422,23.27,23.274,23.27c12.853,0,23.271-10.422,23.271-23.274 c-0.002-19.495,2.895-28.183,6.563-39.187c4.195-12.587,8.952-26.858,8.952-53.903v-0.002v-0.002 c0-27.049-4.757-41.318-8.952-53.906c-3.666-11-6.564-19.687-6.563-39.185c-0.002-19.496,2.895-28.188,6.563-39.188 C282.273,250.767,287.03,236.501,287.03,209.453z"/> <path style="fill:#ff7700;" d="M464.26,263.357c4.197-12.587,8.954-26.858,8.952-53.903c0.002-27.052-4.755-41.322-8.952-53.909 c-3.666-11.003-6.563-19.69-6.563-39.185c0-19.496,2.897-28.185,6.563-39.185c4.197-12.587,8.954-26.858,8.952-53.904 C473.212,10.418,462.791,0,449.938,0c-12.853,0-23.271,10.422-23.271,23.276c0.002,19.492-2.895,28.179-6.561,39.179 c-4.198,12.587-8.954,26.855-8.954,53.903v0.003l0,0l0,0v0.002c0,27.048,4.755,41.314,8.954,53.901 c3.666,11,6.563,19.69,6.561,39.191c0.002,19.493-2.895,28.182-6.561,39.182c-4.197,12.587-8.954,26.858-8.954,53.906v0.002v0.002 c0,27.046,4.755,41.315,8.954,53.903c3.666,11.003,6.563,19.69,6.561,39.187c0,12.853,10.418,23.274,23.271,23.274 c0.002,0,0.002,0,0.002,0c12.851,0,23.273-10.418,23.273-23.27c0.002-27.052-4.755-41.322-8.952-53.909 c-3.666-11-6.563-19.69-6.563-39.185v-0.002v-0.002C457.697,283.046,460.594,274.358,464.26,263.357z"/> <path style="fill:#9d00ff;" d="M91.896,263.357c4.197-12.587,8.954-26.858,8.952-53.903c0.002-27.052-4.754-41.322-8.952-53.909 c-3.666-11.003-6.563-19.69-6.563-39.185c0-19.496,2.897-28.185,6.563-39.185c4.197-12.587,8.954-26.858,8.952-53.904 C100.848,10.418,90.427,0,77.574,0S54.303,10.422,54.303,23.276c0.002,19.492-2.895,28.179-6.561,39.179 c-4.198,12.587-8.954,26.855-8.954,53.903v0.003l0,0l0,0v0.002c0,27.048,4.755,41.314,8.954,53.901 c3.666,11,6.563,19.69,6.561,39.191c0.002,19.493-2.895,28.182-6.561,39.182c-4.198,12.587-8.954,26.857-8.954,53.906v0.002v0.002 c0,27.046,4.755,41.315,8.954,53.903c3.666,11.003,6.563,19.69,6.561,39.187c0,12.853,10.418,23.274,23.271,23.274 c0.002,0,0.002,0,0.002,0c12.851,0,23.273-10.418,23.273-23.27c0.002-27.052-4.754-41.322-8.952-53.909 c-3.666-11-6.563-19.692-6.563-39.185v-0.002v-0.002C85.333,283.046,88.23,274.358,91.896,263.357z"/> <path style="fill:#9d00ff;" d="M356.848,234.277c-6.127,0-12.124-2.484-16.457-6.817c-4.33-4.33-6.816-10.328-6.816-16.455 c0-6.125,2.486-12.125,6.816-16.458c4.33-4.33,10.33-6.814,16.457-6.814s12.124,2.484,16.455,6.814 c4.332,4.333,6.817,10.333,6.817,16.458c0,6.125-2.486,12.125-6.817,16.455C368.972,231.793,362.972,234.277,356.848,234.277z"/> <path style="fill:#e02424;" d="M356.848,449.943c-6.125,0-12.124-2.489-16.457-6.82c-4.33-4.332-6.816-10.328-6.816-16.452 c0-6.129,2.486-12.128,6.816-16.458c4.33-4.332,10.33-6.817,16.457-6.817c6.127,0,12.124,2.486,16.455,6.817 c4.332,4.332,6.817,10.33,6.817,16.458c0,6.124-2.486,12.122-6.817,16.452C368.972,447.454,362.972,449.943,356.848,449.943z"/> <g> <path style="fill:#ff7700;" d="M341.333,341.332c-6.127,0-12.127-2.486-16.457-6.817c-4.332-4.333-6.816-10.332-6.816-16.457 c0-6.124,2.484-12.124,6.816-16.457c4.33-4.33,10.33-6.814,16.457-6.814s12.124,2.484,16.455,6.814 c4.332,4.333,6.817,10.33,6.817,16.457c0,6.125-2.486,12.124-6.817,16.457C353.457,338.845,347.46,341.332,341.333,341.332z"/> <path style="fill:#ff7700;" d="M170.667,139.635c-6.125,0-12.122-2.486-16.457-6.817c-4.33-4.332-6.816-10.33-6.816-16.455 c0-6.125,2.486-12.125,6.816-16.458c4.335-4.33,10.332-6.814,16.457-6.814c6.124,0,12.122,2.484,16.455,6.814 c4.332,4.333,6.817,10.333,6.817,16.458c0,6.124-2.486,12.122-6.817,16.455C182.789,137.149,176.79,139.635,170.667,139.635z"/> </g> <path style="fill:#9d00ff;" d="M170.667,358.4c-6.127,0-12.124-2.486-16.457-6.816c-4.33-4.333-6.816-10.33-6.816-16.457 c0-6.127,2.486-12.127,6.816-16.457c4.335-4.333,10.332-6.816,16.457-6.816c6.124,0,12.122,2.482,16.455,6.816 c4.332,4.333,6.817,10.332,6.817,16.457c0,6.124-2.486,12.124-6.817,16.457C182.79,355.914,176.794,358.4,170.667,358.4z"/> <path style="fill:#e02424;" d="M155.152,248.241c-6.125,0-12.124-2.484-16.457-6.817c-4.33-4.33-6.816-10.33-6.816-16.455 c0-6.125,2.486-12.125,6.816-16.458c4.333-4.33,10.33-6.814,16.457-6.814c6.127,0,12.124,2.484,16.454,6.814 c4.333,4.333,6.819,10.333,6.819,16.458s-2.486,12.125-6.819,16.455C167.275,245.757,161.278,248.241,155.152,248.241z"/> </g>
</svg>