<?xml version="1.0" encoding="UTF-8"?>
<svg version="1.1" xmlns="http://www.w3.org/2000/svg" width="512" height="512">
<path d="M0 0 C6.238849 5.53269263 8.88541589 11.78178386 11.4375 19.5625 C11.84524658 20.75157959 12.25299316 21.94065918 12.6730957 23.16577148 C13.60645006 25.88809281 14.52708615 28.61432426 15.43945312 31.34375 C17.16282953 36.49668429 18.91689827 41.63900773 20.671875 46.78125 C22.70813195 52.75107916 24.74245309 58.72153516 26.76782227 64.69506836 C31.52650472 78.72499251 36.37287083 92.7218433 41.27902222 106.70080566 C45.19560961 117.86638951 49.04793425 129.05180451 52.8359375 140.26171875 C53.24512421 141.47182617 53.65431091 142.68193359 54.07589722 143.92871094 C56.09006382 149.88864946 58.09846179 155.85045544 60.09912109 161.81494141 C60.83158556 163.98734521 61.56416455 166.1597104 62.296875 168.33203125 C62.62746918 169.32377853 62.95806335 170.31552582 63.29867554 171.33732605 C65.64883463 178.38866289 65.64883463 178.38866289 69 185 C72.56238661 186.1369319 75.51726321 186.434155 79 185 C80.04420243 182.99361299 80.04420243 182.99361299 80.56594849 180.50149536 C80.80528233 179.59283848 81.04461617 178.68418159 81.29120255 177.74798965 C81.52510571 176.84115307 81.75900887 175.93431648 82 175 C82.46418271 173.51079882 82.94166898 172.02565914 83.43429565 170.54562378 C83.67728016 169.80832755 83.92026466 169.07103132 84.17061234 168.31139278 C84.42610226 167.54073766 84.68159218 166.77008253 84.94482422 165.97607422 C85.22404095 165.13012223 85.50325768 164.28417025 85.79093552 163.41258335 C86.71093876 160.62620427 87.63283361 157.8404548 88.5546875 155.0546875 C89.21126821 153.06694501 89.86770828 151.07915606 90.52401733 149.09132385 C92.27737076 143.78176925 94.03226566 138.47272553 95.78761292 133.1638298 C99.06056353 123.26470771 102.33150044 113.36492038 105.6015625 103.46484375 C105.96254532 102.37214487 106.32352814 101.27944599 106.69544983 100.15363503 C111.11755241 86.76575834 115.52239866 73.3725221 119.88743973 59.96592712 C120.63518633 57.66960055 121.38367761 55.37351809 122.13241577 53.07751465 C124.1551334 46.87374153 126.1761721 40.66949434 128.18269539 34.46046162 C129.16396739 31.42914041 130.15299915 28.40034967 131.140625 25.37109375 C131.47774506 24.320392 131.81486511 23.26969025 132.16220093 22.18714905 C135.47890241 12.05834959 138.97578171 3.09034453 148.921875 -2.20703125 C155.50883551 -4.72047671 162.41188507 -4.66032919 168.93359375 -2.0703125 C176.22794444 1.7078578 180.03985295 7.11955886 182.6015625 14.8046875 C183.66281007 20.65195354 182.76844403 25.66438835 181.05078125 31.28125 C180.72259148 32.35904724 180.72259148 32.35904724 180.38777161 33.45861816 C176.86558743 44.87249594 172.99677798 56.17974617 169.1875 67.5 C167.63712973 72.11385008 166.08887328 76.72840171 164.54296875 81.34375 C164.16647186 82.46765137 163.78997498 83.59155273 163.40206909 84.74951172 C159.49029784 96.4641049 155.7287096 108.22604337 152 120 C152.33 120.33 152.66 120.66 153 121 C153.92039063 120.34773438 154.84078125 119.69546875 155.7890625 119.0234375 C171.53858026 108.06195786 187.79854197 101.80229296 207 100 C207.57500244 98.6070874 207.57500244 98.6070874 208.16162109 97.18603516 C209.584182 93.74367822 211.01326239 90.3040601 212.44433594 86.86523438 C213.06298346 85.37606604 213.67985673 83.88615933 214.29492188 82.39550781 C215.17894319 80.25389489 216.06929612 78.11501212 216.9609375 75.9765625 C217.23497406 75.30879791 217.50901062 74.64103333 217.79135132 73.95303345 C218.95330888 71.18127723 219.8529851 69.1470149 222 67 C222 78.22 222 89.44 222 101 C225.63 101.33 229.26 101.66 233 102 C236.06034454 102.78214637 238.91408496 103.58667912 241.875 104.625 C242.64457031 104.89006348 243.41414063 105.15512695 244.20703125 105.42822266 C255.47376568 109.44703496 264.92442196 115.1946968 274 123 C274.97195313 123.76957031 275.94390625 124.53914062 276.9453125 125.33203125 C280.23199973 128.07310859 282.82963829 131.18305374 285.4375 134.5625 C285.91050537 135.1702124 286.38351074 135.7779248 286.87084961 136.40405273 C292.20576365 143.38858432 296.88067095 150.7464643 300 159 C300.928125 158.195625 301.85625 157.39125 302.8125 156.5625 C303.78316406 155.74072266 303.78316406 155.74072266 304.7734375 154.90234375 C306.31805973 153.58264019 307.84296826 152.23964823 309.3515625 150.87890625 C331.85172439 131.26773795 360.23436439 128.44950084 389 130 C414.51352292 132.54279481 444.14655978 144.21028506 461.734375 163.44140625 C466.02176213 168.72124411 466.54114065 173.32326482 466.34375 179.96875 C465.52344474 187.20235095 462.30920232 192.60656823 456.98046875 197.4921875 C451.56779256 201.61308101 446.00542282 203.69784793 439.17578125 203.30859375 C433.05935371 202.44109325 428.93945456 200.05664762 424.0625 196.3125 C407.56445817 183.92185448 385.2125896 176.66541888 364.6015625 179.4609375 C353.35238656 181.57171003 342.03936433 185.47038701 335 195 C330.7681797 201.54353109 329.82512909 208.33186931 331 216 C334.71744806 226.34808859 345.07073581 232.52281984 354.46826172 237.0769043 C365.2611961 242.09638988 376.47711333 245.89324909 387.80859375 249.49609375 C409.98630858 256.57686055 430.30212942 264.3460411 448 280 C448.763125 280.66386719 449.52625 281.32773437 450.3125 282.01171875 C459.69932729 290.75686839 466.39287751 302.12779973 471 314 C471.3403125 314.87140625 471.680625 315.7428125 472.03125 316.640625 C478.15086301 336.01939952 474.25602384 357.72338408 465.19628906 375.36425781 C462.07369041 381.14547737 458.46685168 386.16739565 454 391 C453.11570312 391.97582031 452.23140625 392.95164062 451.3203125 393.95703125 C434.02871955 412.46329875 408.85916719 423.36413622 383.578125 424.22265625 C370.76511442 424.4882969 358.53642667 423.65738371 346 421 C344.75605469 420.74476563 343.51210938 420.48953125 342.23046875 420.2265625 C315.95886246 414.02156773 288.35265923 399.01814747 272 377 C268.57106452 371.21367137 268.0516087 365.575513 269 359 C271.72071923 350.58390852 276.56747359 345.85651702 283.8125 341.1875 C290.27064553 338.78152422 296.65527305 338.02042153 303.07421875 340.86328125 C306.81944739 343.07395373 309.86424288 346.01328076 313 349 C331.40016869 366.27986322 354.70531824 375.71295436 379.97802734 375.47290039 C391.74659122 375.09310329 401.63301604 372.38886313 411 365 C412.051875 364.2575 413.10375 363.515 414.1875 362.75 C420.43345434 356.64284465 424.79239147 348.87180451 425 340 C423.34404091 327.92452304 415.33382555 319.17126144 406 312 C395.09092889 304.3935559 383.38519643 299.66784639 371 295 C304.17417821 269.54168123 304.17417821 269.54168123 292 249 C291.34 248.67 290.68 248.34 290 248 C289.74992187 248.55429687 289.49984375 249.10859375 289.2421875 249.6796875 C279.72933065 267.44898614 259.58193263 279.64555672 241 286 C234.34728657 287.90077527 227.94163949 289.48430043 221 289 C220.41798828 290.82337891 220.41798828 290.82337891 219.82421875 292.68359375 C217.74767844 298.91321467 215.27403835 304.97712773 212.8125 311.0625 C212.34908203 312.21427734 211.88566406 313.36605469 211.40820312 314.55273438 C210.2745028 317.36945374 209.13838499 320.18517147 208 323 C207.67 323 207.34 323 207 323 C207 311.78 207 300.56 207 289 C204.03 289 201.06 289 198 289 C173.76092066 285.0056379 151.95362345 272.14823564 137.2421875 252.39453125 C129.55209105 241.56368808 124.37861012 229.862428 121 217 C119.14066743 219.78899886 118.29835413 221.81614946 117.30761719 224.97119141 C116.98678162 225.98299469 116.66594604 226.99479797 116.33538818 228.03726196 C115.99267883 229.13098114 115.64996948 230.22470032 115.296875 231.3515625 C114.5565445 233.67075013 113.8156406 235.98975478 113.07421875 238.30859375 C111.91188844 241.96016242 110.75380097 245.61289302 109.60595703 249.26904297 C108.49479501 252.80072854 107.36588963 256.32635329 106.234375 259.8515625 C105.73245636 261.47392319 105.73245636 261.47392319 105.22039795 263.12905884 C102.14164 272.64587068 97.64719143 281.4374792 89 287 C80.90716034 291.08551567 71.72378055 291.66820029 62.984375 289.12109375 C52.22468227 284.1208071 48.00256716 276.75351798 44 266 C41.94503464 260.27880171 40.0078901 254.51720722 38.0718689 248.75491333 C36.42050454 243.84127009 34.75475241 238.93250472 33.08984375 234.0234375 C32.57756981 232.51170708 32.57756981 232.51170708 32.0549469 230.96943665 C28.66382007 220.97766368 25.18043306 211.01903188 21.6875 201.0625 C15.62716094 183.77415166 9.71682262 166.43727813 3.84405518 149.08441162 C-0.88493753 135.11551388 -5.65882924 121.16476616 -10.54025269 107.24838257 C-12.35379053 102.07226515 -14.1552057 96.89190933 -15.95811462 91.71208191 C-17.79282289 86.44595441 -19.63928208 81.18415895 -21.49609375 75.92578125 C-23.50391233 70.23650169 -25.4959794 64.54203737 -27.4711771 58.84135151 C-28.54915704 55.73215457 -29.63677102 52.62691797 -30.73898315 49.5262146 C-41.11954489 20.29437895 -41.11954489 20.29437895 -36.5 8.5625 C-33.31312342 3.30754394 -28.62183187 -0.6599526 -23.1875 -3.4375 C-14.7195509 -4.93184396 -7.36899116 -4.72050443 0 0 Z " fill="#FEFEFE" transform="translate(38,46)"/>
<path d="M0 0 C6.238849 5.53269263 8.88541589 11.78178386 11.4375 19.5625 C11.84524658 20.75157959 12.25299316 21.94065918 12.6730957 23.16577148 C13.60645006 25.88809281 14.52708615 28.61432426 15.43945312 31.34375 C17.16282953 36.49668429 18.91689827 41.63900773 20.671875 46.78125 C22.70813195 52.75107916 24.74245309 58.72153516 26.76782227 64.69506836 C31.52650472 78.72499251 36.37287083 92.7218433 41.27902222 106.70080566 C45.19560961 117.86638951 49.04793425 129.05180451 52.8359375 140.26171875 C53.24512421 141.47182617 53.65431091 142.68193359 54.07589722 143.92871094 C56.09006382 149.88864946 58.09846179 155.85045544 60.09912109 161.81494141 C60.83158556 163.98734521 61.56416455 166.1597104 62.296875 168.33203125 C62.62746918 169.32377853 62.95806335 170.31552582 63.29867554 171.33732605 C65.64883463 178.38866289 65.64883463 178.38866289 69 185 C72.56238661 186.1369319 75.51726321 186.434155 79 185 C80.04420243 182.99361299 80.04420243 182.99361299 80.56594849 180.50149536 C80.80528233 179.59283848 81.04461617 178.68418159 81.29120255 177.74798965 C81.52510571 176.84115307 81.75900887 175.93431648 82 175 C82.46418271 173.51079882 82.94166898 172.02565914 83.43429565 170.54562378 C83.67728016 169.80832755 83.92026466 169.07103132 84.17061234 168.31139278 C84.42610226 167.54073766 84.68159218 166.77008253 84.94482422 165.97607422 C85.22404095 165.13012223 85.50325768 164.28417025 85.79093552 163.41258335 C86.71093876 160.62620427 87.63283361 157.8404548 88.5546875 155.0546875 C89.21126821 153.06694501 89.86770828 151.07915606 90.52401733 149.09132385 C92.27737076 143.78176925 94.03226566 138.47272553 95.78761292 133.1638298 C99.06056353 123.26470771 102.33150044 113.36492038 105.6015625 103.46484375 C105.96254532 102.37214487 106.32352814 101.27944599 106.69544983 100.15363503 C111.11755241 86.76575834 115.52239866 73.3725221 119.88743973 59.96592712 C120.63518633 57.66960055 121.38367761 55.37351809 122.13241577 53.07751465 C124.1551334 46.87374153 126.1761721 40.66949434 128.18269539 34.46046162 C129.16396739 31.42914041 130.15299915 28.40034967 131.140625 25.37109375 C131.47774506 24.320392 131.81486511 23.26969025 132.16220093 22.18714905 C135.47890241 12.05834959 138.97578171 3.09034453 148.921875 -2.20703125 C155.50883551 -4.72047671 162.41188507 -4.66032919 168.93359375 -2.0703125 C176.22794444 1.7078578 180.03985295 7.11955886 182.6015625 14.8046875 C183.66437612 20.66058213 182.76420202 25.67612028 181.04296875 31.30078125 C180.82376266 32.020345 180.60455658 32.73990875 180.37870789 33.48127747 C176.89218809 44.78056068 173.07959094 55.97959894 169.3125 67.1875 C167.69717553 71.99584529 166.08248919 76.80440368 164.46875 81.61328125 C164.07681961 82.78020508 163.68488922 83.94712891 163.28108215 85.14941406 C161.07903469 91.72199016 158.92645691 98.30667472 156.84375 104.91796875 C156.39969989 106.31172186 155.95530147 107.70536407 155.51049805 109.09887695 C154.7429965 111.51806312 153.99043434 113.94207066 153.25708008 116.37182617 C151.02094199 123.3578152 148.14558159 127.82084567 143 133 C132.31380857 145.81638775 125.32620022 159.63208819 122 176 C121.77957031 177.04414063 121.55914062 178.08828125 121.33203125 179.1640625 C121.04256919 182.50820061 121.18308241 185.12447121 121.5703125 188.42578125 C123.45010591 208.37065744 118.11883643 225.68834304 111.875 244.375 C111.55241085 245.34876272 111.55241085 245.34876272 111.22330475 246.34219742 C109.7633197 250.74787474 108.26493506 255.1389549 106.7421875 259.5234375 C106.1651004 261.20941795 106.1651004 261.20941795 105.57635498 262.92945862 C101.66399347 273.8621949 96.41343588 283.25746836 85.765625 288.6328125 C78.86762118 291.45990812 70.0799353 291.18910031 62.984375 289.12109375 C52.22468227 284.1208071 48.00256716 276.75351798 44 266 C41.94503464 260.27880171 40.0078901 254.51720722 38.0718689 248.75491333 C36.42050454 243.84127009 34.75475241 238.93250472 33.08984375 234.0234375 C32.57756981 232.51170708 32.57756981 232.51170708 32.0549469 230.96943665 C28.66382007 220.97766368 25.18043306 211.01903188 21.6875 201.0625 C15.62716094 183.77415166 9.71682262 166.43727813 3.84405518 149.08441162 C-0.88493753 135.11551388 -5.65882924 121.16476616 -10.54025269 107.24838257 C-12.35379053 102.07226515 -14.1552057 96.89190933 -15.95811462 91.71208191 C-17.79282289 86.44595441 -19.63928208 81.18415895 -21.49609375 75.92578125 C-23.50391233 70.23650169 -25.4959794 64.54203737 -27.4711771 58.84135151 C-28.54915704 55.73215457 -29.63677102 52.62691797 -30.73898315 49.5262146 C-41.11954489 20.29437895 -41.11954489 20.29437895 -36.5 8.5625 C-33.31312342 3.30754394 -28.62183187 -0.6599526 -23.1875 -3.4375 C-14.7195509 -4.93184396 -7.36899116 -4.72050443 0 0 Z " fill="#FF6969" transform="translate(38,46)"/>
<path d="M0 0 C0.87140625 0.00064453 1.7428125 0.00128906 2.640625 0.00195312 C6.79753163 0.03046849 10.69843563 0.14112491 14.75 1.1875 C14.75 1.8475 14.75 2.5075 14.75 3.1875 C13.99976563 3.44402344 13.24953125 3.70054687 12.4765625 3.96484375 C3.15867002 7.45025189 -5.14691973 12.39100619 -9.875 21.5 C-12.08425786 27.54638992 -12.63559679 34.33047816 -10.4375 40.44921875 C0.17446414 59.20439148 26.51940398 65.63008259 45.55859375 71.68359375 C67.73630858 78.76436055 88.05212942 86.5335411 105.75 102.1875 C106.8946875 103.18330078 106.8946875 103.18330078 108.0625 104.19921875 C117.44932729 112.94436839 124.14287751 124.31529973 128.75 136.1875 C129.0903125 137.05890625 129.430625 137.9303125 129.78125 138.828125 C135.90086301 158.20689952 132.00602384 179.91088408 122.94628906 197.55175781 C119.82369041 203.33297737 116.21685168 208.35489565 111.75 213.1875 C110.86570312 214.16332031 109.98140625 215.13914062 109.0703125 216.14453125 C91.77871955 234.65079875 66.60916719 245.55163622 41.328125 246.41015625 C28.51511442 246.6757969 16.28642667 245.84488371 3.75 243.1875 C2.50605469 242.93226563 1.26210938 242.67703125 -0.01953125 242.4140625 C-26.29113754 236.20906773 -53.89734077 221.20564747 -70.25 199.1875 C-73.67893548 193.40117137 -74.1983913 187.763013 -73.25 181.1875 C-70.52928077 172.77140852 -65.68252641 168.04401702 -58.4375 163.375 C-51.97935447 160.96902422 -45.59472695 160.20792153 -39.17578125 163.05078125 C-35.43055261 165.26145373 -32.38575712 168.20078076 -29.25 171.1875 C-10.84983131 188.46736322 12.45531824 197.90045436 37.72802734 197.66040039 C49.49659122 197.28060329 59.38301604 194.57636313 68.75 187.1875 C69.801875 186.445 70.85375 185.7025 71.9375 184.9375 C78.18345434 178.83034465 82.54239147 171.05930451 82.75 162.1875 C81.09404091 150.11202304 73.08382555 141.35876144 63.75 134.1875 C52.84092889 126.5810559 41.13519643 121.85534639 28.75 117.1875 C-39.49935068 91.18686613 -39.49935068 91.18686613 -51.25 70.1875 C-51.20703125 68.25 -51.20703125 68.25 -50.25 66.1875 C-49.75886719 65.115 -49.26773437 64.0425 -48.76171875 62.9375 C-48.1546303 61.68702158 -47.54650515 60.43704608 -46.9375 59.1875 C-40.84153005 46.34937171 -37.42205937 34.07502175 -37.0625 19.8125 C-36.58646968 12.60064067 -36.58646968 12.60064067 -33.3125 9.625 C-31.40234375 8.35546875 -31.40234375 8.35546875 -29.25 7.1875 C-28.46753906 6.72988281 -27.68507813 6.27226562 -26.87890625 5.80078125 C-18.13818243 1.04179121 -9.85348806 -0.14097611 0 0 Z " fill="#FFFFB9" transform="translate(380.25,223.8125)"/>
<path d="M0 0 C-0.703263 5.10336462 -2.77853174 9.59478982 -4.76953125 14.30078125 C-5.35207924 15.6934597 -5.35207924 15.6934597 -5.94639587 17.11427307 C-7.23078871 20.18217464 -8.52161904 23.24732345 -9.8125 26.3125 C-10.71107356 28.45504736 -11.60917872 30.59779122 -12.50683594 32.74072266 C-13.90634241 36.08121629 -15.30631768 39.42150776 -16.70809937 42.76104736 C-19.9875909 50.5746418 -23.24786754 58.39601694 -26.49609375 66.22265625 C-27.38629806 68.36613528 -28.27651598 70.50960867 -29.16674805 72.65307617 C-30.44173461 75.72321902 -31.71624786 78.79355239 -32.98892212 81.86465454 C-34.17281324 84.72053983 -35.35957623 87.57521751 -36.546875 90.4296875 C-36.87960922 91.23443008 -37.21234344 92.03917267 -37.55516052 92.86830139 C-41.21524582 101.65363614 -45.13067278 110.29401376 -49 119 C-32.83 119 -16.66 119 0 119 C0 141.77 0 164.54 0 188 C-23.52865049 188 -44.55153228 177.51318872 -61.25 161.3125 C-80.06872205 142.19886231 -87.25756731 118.69481946 -87.2487793 92.41162109 C-87.0184842 67.7485078 -78.77134245 46.40467314 -61.578125 28.68359375 C-58.9390835 26.02253468 -58.9390835 26.02253468 -56.60546875 22.97265625 C-53.69537827 19.65244807 -50.738998 17.39170803 -47.0625 15 C-46.07624634 14.35490479 -46.07624634 14.35490479 -45.07006836 13.69677734 C-32.05606788 5.40933218 -15.68896557 -1.1206404 0 0 Z " fill="#FEFEFE" transform="translate(245,147)"/>
<path d="M0 0 C0.33 0 0.66 0 1 0 C1 33.99 1 67.98 1 103 C15.85 103 30.7 103 46 103 C45.2706479 106.64676049 44.55272323 109.43978436 43.21606445 112.81958008 C42.84588699 113.76167328 42.47570953 114.70376648 42.09431458 115.67440796 C41.48495308 117.20649399 41.48495308 117.20649399 40.86328125 118.76953125 C40.435811 119.854086 40.00834076 120.93864075 39.56791687 122.05606079 C38.63966569 124.40959819 37.70947827 126.76237262 36.77758789 129.11447144 C35.29907597 132.8463836 33.82551105 136.58021204 32.35351562 140.31469727 C30.29079733 145.54628998 28.2257497 150.77695651 26.15869141 156.00683594 C21.57392112 167.60722175 16.99573774 179.21018764 12.42660522 190.81674194 C11.03218187 194.35582165 9.63401264 197.893405 8.2355957 201.4309082 C4.30415469 211.39986278 0.43844654 221.36831986 -3.06362915 231.49691772 C-4.95491165 236.95036193 -7.07880506 242.26874318 -9.375 247.5625 C-9.72949219 248.39201172 -10.08398438 249.22152344 -10.44921875 250.07617188 C-11.29472255 252.05282265 -12.14658624 254.02675143 -13 256 C-13.33 256 -13.66 256 -14 256 C-14 222.01 -14 188.02 -14 153 C-30.17 153 -46.34 153 -63 153 C-61.81735884 149.45207651 -60.68520339 146.09513444 -59.25439453 142.67431641 C-58.91794922 141.86694031 -58.58150391 141.05956421 -58.23486328 140.22772217 C-57.87118652 139.36108948 -57.50750977 138.49445679 -57.1328125 137.6015625 C-56.74577148 136.67434387 -56.35873047 135.74712524 -55.95996094 134.79180908 C-54.68362822 131.73537133 -53.40431983 128.68018852 -52.125 125.625 C-51.23269353 123.48983661 -50.34060697 121.35458131 -49.44873047 119.21923828 C-48.05797973 115.88974143 -46.66699989 112.56034155 -45.275177 109.23129272 C-41.98881617 101.3706986 -38.71058432 93.50675594 -35.4375 85.640625 C-34.98905731 84.56311981 -34.54061462 83.48561462 -34.07858276 82.37545776 C-32.3387042 78.19487827 -30.59884533 74.01429088 -28.85992432 69.83331299 C-27.65991382 66.94848182 -26.45915335 64.0639649 -25.2578125 61.1796875 C-24.8849411 60.28428757 -24.5120697 59.38888763 -24.12789917 58.46635437 C-21.53950948 52.26264178 -18.90064054 46.08276904 -16.21142578 39.92211914 C-14.93267178 36.83759543 -13.8244593 33.72347691 -12.75 30.5625 C-9.12796204 20.12672727 -4.47891805 10.08962675 0 0 Z " fill="#39417B" transform="translate(259,113)"/>
<path d="M0 0 C4.9819952 4.34936089 7.79716989 9.50049695 9 16 C9.24430747 21.1971946 8.5624557 25.33538864 7.04296875 30.30078125 C6.82376266 31.020345 6.60455658 31.73990875 6.37870789 32.48127747 C2.89218809 43.78056068 -0.92040906 54.97959894 -4.6875 66.1875 C-6.30282447 70.99584529 -7.91751081 75.80440368 -9.53125 80.61328125 C-10.11914558 82.36366699 -10.11914558 82.36366699 -10.71891785 84.14941406 C-12.92096531 90.72199016 -15.07354309 97.30667472 -17.15625 103.91796875 C-17.60030011 105.31172186 -18.04469853 106.70536407 -18.48950195 108.09887695 C-19.2570035 110.51806312 -20.00956566 112.94207066 -20.74291992 115.37182617 C-22.97905801 122.3578152 -25.85441841 126.82084567 -31 132 C-41.68619143 144.81638775 -48.67379978 158.63208819 -52 175 C-52.22042969 176.04414063 -52.44085938 177.08828125 -52.66796875 178.1640625 C-52.95743081 181.50820061 -52.81691759 184.12447121 -52.4296875 187.42578125 C-50.54989409 207.37065744 -55.88116357 224.68834304 -62.125 243.375 C-62.44758915 244.34876272 -62.44758915 244.34876272 -62.77669525 245.34219742 C-64.2366803 249.74787474 -65.73506494 254.1389549 -67.2578125 258.5234375 C-67.8348996 260.20941795 -67.8348996 260.20941795 -68.42364502 261.92945862 C-72.34003233 272.87344464 -77.59065234 282.22796846 -88.22265625 287.640625 C-92.10142697 289.23362735 -95.844712 289.4466429 -100 289.375 C-101.00933594 289.39240234 -101.00933594 289.39240234 -102.0390625 289.41015625 C-107.11032854 289.38078598 -110.54238041 288.19398464 -115 286 C-113.64104986 282.9311873 -112.10558171 281.0153698 -109.70703125 278.6953125 C-104.6396559 272.98585165 -102.88764384 266.01640392 -100.6875 258.875 C-100.19187261 257.32064905 -99.69390831 255.7670417 -99.19384766 254.21411133 C-98.37360395 251.66492163 -97.55532978 249.11521309 -96.74414062 246.56312561 C-93.30330621 235.74412087 -89.67069199 224.98937581 -86.06063843 214.22595215 C-80.53072572 197.72232757 -75.05498551 181.20410351 -69.75634766 164.62475586 C-66.01829497 152.96724736 -62.13242619 141.36005917 -58.25 129.75 C-52.43756996 112.36446321 -46.67361038 94.96452839 -41.03955078 77.52026367 C-40.47697758 75.77910518 -39.91431542 74.03797542 -39.3515625 72.296875 C-39.07643829 71.4454744 -38.80131409 70.59407379 -38.51785278 69.71687317 C-36.82782944 64.5037345 -35.09999323 59.30482344 -33.34094238 54.11457825 C-32.19635682 50.73422841 -31.06458692 47.34964986 -29.93371582 43.96469116 C-29.40432374 42.39219692 -28.8686691 40.82179378 -28.3260498 39.2538147 C-22.97448938 23.97991487 -22.97448938 23.97991487 -25.8125 8.5 C-27.35680571 5.86204007 -29.04075294 3.35109648 -31 1 C-22.35067559 -7.10874163 -9.44852885 -6.68508815 0 0 Z " fill="#FF0202" transform="translate(212,47)"/>
<path d="M0 0 C0.87140625 0.00064453 1.7428125 0.00128906 2.640625 0.00195312 C6.79753163 0.03046849 10.69843563 0.14112491 14.75 1.1875 C14.75 1.8475 14.75 2.5075 14.75 3.1875 C13.99976563 3.44402344 13.24953125 3.70054687 12.4765625 3.96484375 C3.15867002 7.45025189 -5.14691973 12.39100619 -9.875 21.5 C-12.08425786 27.54638992 -12.63559679 34.33047816 -10.4375 40.44921875 C0.17446414 59.20439148 26.51940398 65.63008259 45.55859375 71.68359375 C67.73630858 78.76436055 88.05212942 86.5335411 105.75 102.1875 C106.8946875 103.18330078 106.8946875 103.18330078 108.0625 104.19921875 C117.44932729 112.94436839 124.14287751 124.31529973 128.75 136.1875 C129.0903125 137.05890625 129.430625 137.9303125 129.78125 138.828125 C135.90086301 158.20689952 132.00602384 179.91088408 122.94628906 197.55175781 C119.82369041 203.33297737 116.21685168 208.35489565 111.75 213.1875 C110.86570312 214.16332031 109.98140625 215.13914062 109.0703125 216.14453125 C92.60100025 233.77075568 68.12950641 245.36251991 43.91552734 246.296875 C40.65150748 246.37693681 37.38992752 246.41735353 34.125 246.4375 C33.04436279 246.4468457 31.96372559 246.45619141 30.8503418 246.46582031 C29.32727417 246.45953613 29.32727417 246.45953613 27.7734375 246.453125 C26.85481934 246.45086914 25.93620117 246.44861328 24.98974609 246.44628906 C22.75 246.1875 22.75 246.1875 20.75 244.1875 C22.14798828 243.84138672 22.14798828 243.84138672 23.57421875 243.48828125 C40.90980227 239.05359709 56.9078362 232.83684577 70.75 221.1875 C71.32878906 220.75308594 71.90757812 220.31867188 72.50390625 219.87109375 C86.82340065 208.7410923 96.72986212 189.14088096 99.296875 171.41015625 C101.70033122 150.86740778 97.66618688 132.8691118 85.4765625 116.05078125 C83.31345103 113.34504626 81.07895849 110.75106053 78.75 108.1875 C78.21117187 107.56746094 77.67234375 106.94742188 77.1171875 106.30859375 C71.53018195 100.25834402 64.61540125 95.65668648 57.75 91.1875 C57.18216797 90.81367188 56.61433594 90.43984375 56.02929688 90.0546875 C42.3845049 81.34457919 26.4543199 77.23065799 11.18392944 72.28965759 C-33.43649795 57.81323677 -33.43649795 57.81323677 -40.25 45.1875 C-39.99609375 42.29296875 -39.99609375 42.29296875 -39.25 39.1875 C-38.05086021 32.66717737 -37.20989966 26.45250356 -37.0625 19.8125 C-36.58646968 12.60064067 -36.58646968 12.60064067 -33.3125 9.625 C-31.40234375 8.35546875 -31.40234375 8.35546875 -29.25 7.1875 C-28.46753906 6.72988281 -27.68507813 6.27226562 -26.87890625 5.80078125 C-18.13818243 1.04179121 -9.85348806 -0.14097611 0 0 Z " fill="#FFFF04" transform="translate(380.25,223.8125)"/>
<path d="M0 0 C10.82854024 8.59251699 10.82854024 8.59251699 13.0078125 15.38671875 C14.01668919 24.18916787 12.93219432 31.26265544 7.5 38.35546875 C2.90347698 43.40095449 -2.4766462 46.70977218 -9.28515625 47.73046875 C-17.24304484 48.05919392 -22.71047822 45.47384548 -28.9296875 40.69921875 C-47.57850801 26.69325812 -70.53210382 21.49079819 -93.484375 24.265625 C-95.9921875 24.38671875 -95.9921875 24.38671875 -98.2109375 23.9296875 C-113.08784109 21.02534818 -129.13476301 23.29639639 -141.9921875 31.38671875 C-145.14106854 33.78822139 -145.90270964 34.87967752 -146.6015625 38.83984375 C-146.64796875 40.0928125 -146.694375 41.34578125 -146.7421875 42.63671875 C-146.79890625 43.9 -146.855625 45.16328125 -146.9140625 46.46484375 C-146.93984375 47.4290625 -146.965625 48.39328125 -146.9921875 49.38671875 C-147.3221875 49.38671875 -147.6521875 49.38671875 -147.9921875 49.38671875 C-148.00620605 48.22438721 -148.00620605 48.22438721 -148.02050781 47.03857422 C-147.98774967 28.11740977 -147.98774967 28.11740977 -152.25 9.85546875 C-153.08381285 7.0819439 -153.16904911 6.01202542 -151.9921875 3.38671875 C-115.74266665 -41.28524203 -41.40181724 -31.29319597 0 0 Z " fill="#FFFFB9" transform="translate(490.9921875,201.61328125)"/>
<path d="M0 0 C13.86 0 27.72 0 42 0 C38.62506793 10.12479621 38.62506793 10.12479621 37.17260742 13.81469727 C36.84261246 14.65640976 36.51261749 15.49812225 36.17262268 16.36534119 C35.82046188 17.25669266 35.46830109 18.14804413 35.10546875 19.06640625 C34.72531113 20.03409439 34.3451535 21.00178253 33.95347595 21.99879456 C33.13060259 24.09247866 32.30665838 26.18574215 31.48175049 28.27862549 C30.16576359 31.61765135 28.85280329 34.95785394 27.54052734 38.29833984 C23.45148666 48.70391419 19.35350674 59.10595817 15.25073719 69.50612545 C13.01967505 75.16191798 10.79129372 80.81876419 8.56338501 86.47579956 C7.15687143 90.04414178 5.74684548 93.61108223 4.33666992 97.17797852 C0.36946707 107.23639861 -3.53726927 117.29269296 -7.06994629 127.51271057 C-8.95873414 132.96102846 -11.08105795 138.27393711 -13.375 143.5625 C-13.72949219 144.39201172 -14.08398438 145.22152344 -14.44921875 146.07617188 C-15.29472255 148.05282265 -16.14658624 150.02675143 -17 152 C-17.33 152 -17.66 152 -18 152 C-18.35257994 138.83648252 -18.61654374 125.67414457 -18.77718258 112.50681114 C-18.85441101 106.38773498 -18.95852891 100.27196057 -19.1315918 94.15478516 C-19.9653049 63.89515281 -18.59543085 38.82210432 -4.70265198 11.51773071 C-2.89596176 7.78505383 -1.4560834 3.88288905 0 0 Z " fill="#0A0F2F" transform="translate(263,217)"/>
<path d="M0 0 C36.92744677 -0.96203769 73.28674917 5.30849346 101.1875 31.75 C106.40807543 37.45835647 107.57126669 42.30902152 107.34375 49.96875 C106.52344474 57.20235095 103.30920232 62.60656823 97.98046875 67.4921875 C92.56711174 71.61359934 87.03175955 73.66278768 80.20703125 73.328125 C75.11920205 72.57170438 70.39022261 71.04538833 67 67 C67 66.34 67 65.68 67 65 C67.5775 64.484375 68.155 63.96875 68.75 63.4375 C73.02792882 58.80307712 75.20867905 53.35687631 75.625 47.0625 C75.23840483 40.29186032 72.50495061 35.22557049 67.51757812 30.63574219 C55.01073771 20.12498761 40.49674031 12.98059016 25.1875 7.5625 C24.25744141 7.2322583 23.32738281 6.9020166 22.36914062 6.56176758 C16.43026281 4.557134 10.64262677 3.32582655 4.42700195 2.50756836 C2 2 2 2 0 0 Z " fill="#FFFF05" transform="translate(397,176)"/>
<path d="M0 0 C2.16150357 1.71315676 4.00411845 3.61565431 5.9140625 5.60546875 C17.57388641 17.6204142 32.7228182 25.3668358 48.72387695 29.82128906 C50.42747598 30.30263484 52.11088431 30.85435419 53.7890625 31.41796875 C54.1190625 32.07796875 54.4490625 32.73796875 54.7890625 33.41796875 C33.84576668 38.65379271 11.20015377 31.78080618 -6.9375 21.31640625 C-14.73162238 16.61075865 -22.00716601 11.11550981 -28.2109375 4.41796875 C-28.2109375 3.75796875 -28.2109375 3.09796875 -28.2109375 2.41796875 C-26.82016449 1.59683698 -25.42304857 0.7864438 -24.0234375 -0.01953125 C-23.24613281 -0.47199219 -22.46882813 -0.92445313 -21.66796875 -1.390625 C-14.67775915 -4.7801543 -6.56774661 -4.15357491 0 0 Z " fill="#FFFF08" transform="translate(344.2109375,388.58203125)"/>
<path d="M0 0 C9.9 0 19.8 0 30 0 C30 0.33 30 0.66 30 1 C23.73 1 17.46 1 11 1 C11 1.66 11 2.32 11 3 C9.54077307 2.88590407 8.08259402 2.75834456 6.625 2.625 C5.40683594 2.52058594 5.40683594 2.52058594 4.1640625 2.4140625 C2 2 2 2 0 0 Z " fill="#FFFF2F" transform="translate(397,176)"/>
</svg>
